HIERARCHY
ROOT Hips
{
  OFFSET 43.1326 95.8802 26.1617
  CHANNELS 6 Xposition Yposition Zposition Zrotation Xrotation Yrotation
  JOINT spine
  {
    OFFSET 0 8.1325 0.467659
    CHANNELS 3 Zrotation Xrotation Yrotation
    JOINT spine1
    {
      OFFSET 0 10.3498 0
      CHANNELS 3 Zrotation Xrotation Yrotation
      JOINT spine2
      {
        OFFSET 0 9.91699 0
        CHANNELS 3 Zrotation Xrotation Yrotation
        JOINT Neck
        {
          OFFSET 0 25.461 1.2139
          CHANNELS 3 Zrotation Xrotation Yrotation
          JOINT Head
          {
            OFFSET 0 7.69245 0
            CHANNELS 3 Zrotation Xrotation Yrotation
            End Site
            {
              OFFSET 0 18.62 -6.14063
            }
          }
        }
        JOINT RightShoulder
        {
          OFFSET -4.17575 10.7096 -0.581445
          CHANNELS 3 Zrotation Xrotation Yrotation
          JOINT RightArm
          {
            OFFSET 0 14.0466 0
            CHANNELS 3 Zrotation Xrotation Yrotation
            JOINT RightArmRoll
            {
              OFFSET 0 7.09098 0
              CHANNELS 3 Zrotation Xrotation Yrotation
              JOINT RightForeArm
              {
                OFFSET 0 20.6535 0
                CHANNELS 3 Zrotation Xrotation Yrotation
                JOINT RightForeArmRoll
                {
                  OFFSET 0 7.95718 0
                  CHANNELS 3 Zrotation Xrotation Yrotation
                  JOINT RightHand
                  {
                    OFFSET 0 15.9683 0
                    CHANNELS 3 Zrotation Xrotation Yrotation
                    End Site
                    {
                      OFFSET 0 0 0
                    }
                  }
                }
              }
            }
          }
        }
        JOINT LeftShoulder
        {
          OFFSET 4.17575 10.7096 -0.581445
          CHANNELS 3 Zrotation Xrotation Yrotation
          JOINT LeftArm
          {
            OFFSET 0 14.0466 0
            CHANNELS 3 Zrotation Xrotation Yrotation
            JOINT LeftArmRoll
            {
              OFFSET 0 7.09098 0
              CHANNELS 3 Zrotation Xrotation Yrotation
              JOINT LeftForeArm
              {
                OFFSET 0 20.6535 0
                CHANNELS 3 Zrotation Xrotation Yrotation
                JOINT LeftForeArmRoll
                {
                  OFFSET 0 7.95718 0
                  CHANNELS 3 Zrotation Xrotation Yrotation
                  JOINT LeftHand
                  {
                    OFFSET 0 15.9683 0
                    CHANNELS 3 Zrotation Xrotation Yrotation
                    End Site
                    {
                      OFFSET 0 0 0
                    }
                  }
                }
              }
            }
          }
        }
      }
    }
  }
  JOINT RightUpLeg
  {
    OFFSET -7.20834 -1.32182 -1.10884
    CHANNELS 3 Zrotation Xrotation Yrotation
    JOINT RightUpLegRoll
    {
      OFFSET 0 18.7238 0
      CHANNELS 3 Zrotation Xrotation Yrotation
      JOINT RightLeg
      {
        OFFSET 0 -23.1866 0
        CHANNELS 3 Zrotation Xrotation Yrotation
        JOINT RightLegRoll
        {
          OFFSET 0 23.2624 0
          CHANNELS 3 Zrotation Xrotation Yrotation
          JOINT RightFoot
          {
            OFFSET 0 19.3621 0
            CHANNELS 3 Zrotation Xrotation Yrotation
            JOINT RightToeBase
            {
              OFFSET 0 16.1857 0
              CHANNELS 3 Zrotation Xrotation Yrotation
              End Site
              {
                OFFSET 0.00686052 7.83862 -0.903522
              }
            }
          }
        }
      }
    }
  }
  JOINT LeftUpLeg
  {
    OFFSET 7.20834 -1.32182 -1.10884
    CHANNELS 3 Zrotation Xrotation Yrotation
    JOINT LeftUpLegRoll
    {
      OFFSET 0 18.7239 0
      CHANNELS 3 Zrotation Xrotation Yrotation
      JOINT LeftLeg
      {
        OFFSET 0 23.1865 0
        CHANNELS 3 Zrotation Xrotation Yrotation
        JOINT LeftLegRoll
        {
          OFFSET 0 23.4775 0
          CHANNELS 3 Zrotation Xrotation Yrotation
          JOINT LeftFoot
          {
            OFFSET 0 19.147 0
            CHANNELS 3 Zrotation Xrotation Yrotation
            JOINT LeftToeBase
            {
              OFFSET 0 16.1857 0
              CHANNELS 3 Zrotation Xrotation Yrotation
              End Site
              {
                OFFSET -0.0307459 7.83862 -0.903522
              }
            }
          }
        }
      }
    }
  }
}
MOTION
Frames: 7
Frame Time: 0.00208333
47.6756 96.2161 13.1474 0.11806 -4.88407 2.33119 0.462248 -0.706827 0.0353291 0.927925 2.58903 0.00218528 0.928827 4.23398 -0.0132961 -6.02354 12.884 -1.07044 3.43136 -3.8985 -2.21137 57.5215 -9.42329 -5.84399 113.074 20.5643 19.5313 -9.58815e-006 1.05715e-006 -8.56445e-006 5.54047 0.878639 -0.633604 -3.17359e-006 2.75331e-006 -2.99999 8.02948 -4.95142 0.697667 -62.9151 -7.17823 4.60643 -108.475 18.4374 -8.53961 -1.04503e-005 -9.75897e-007 6.55366e-006 -8.65525 0.0713179 1.08303 1.62392e-005 5.49359e-006 3.02504 -8.02908 -4.95144 -0.697685 174.53 1.1346 3.4919 180 7.01542e-015 178.902 178.002 13.1794 179.775 1.37099e-006 -3.52311e-006 0.245969 -20.1994 70.0655 21.3955 8.13135 25.2331 -3.48532 -174.041 0.121795 -0.73735 4.54188e-006 -4.6773e-006 -1.03165 -0.334354 -12.0209 0.56288 5.55251e-008 -4.95664e-006 -0.138843 18.4888 70.1761 -21.4094 -8.13652 25.2331 3.48719 
47.6577 96.2121 13.1416 0.119663 -4.87657 2.34421 0.46281 -0.707467 0.0350514 0.928862 2.58775 0.00268929 0.929764 4.2327 -0.0128134 -6.03973 12.8753 -1.06855 3.44709 -3.88647 -2.21184 57.5123 -9.42463 -5.84477 113.088 20.5743 19.5233 -9.58815e-006 1.05715e-006 -8.56445e-006 5.53969 0.862439 -0.632004 -3.17359e-006 2.75331e-006 -2.99999 8.02948 -4.95142 0.697667 -62.9163 -7.16774 4.60047 -108.473 18.4328 -8.53798 -1.04503e-005 -9.75897e-007 6.55366e-006 -8.65808 0.0713173 1.08214 1.62392e-005 5.49359e-006 3.02504 -8.02908 -4.95144 -0.697685 174.536 1.15042 3.49069 180 7.01542e-015 178.902 177.998 13.1983 179.776 1.37099e-006 -3.52311e-006 0.246605 -20.2128 70.076 21.4073 8.13135 25.2331 -3.48532 -174.035 0.142924 -0.736864 4.54188e-006 -4.6773e-006 -1.03161 -0.329815 -12.0347 0.56383 5.55251e-008 -4.95664e-006 -0.138839 18.4837 70.1763 -21.4088 -8.13652 25.2331 3.48719 
47.6452 96.2075 13.1317 0.121246 -4.86891 2.35716 0.463403 -0.708157 0.0348036 0.929853 2.58637 0.00325545 0.930756 4.23132 -0.0122697 -6.05645 12.8665 -1.06662 3.46344 -3.87399 -2.21235 57.5031 -9.426 -5.84558 113.101 20.5844 19.5157 -9.58815e-006 1.05715e-006 -8.56445e-006 5.53852 0.846212 -0.630377 -3.17359e-006 2.75331e-006 -2.99999 8.02948 -4.95142 0.697667 -62.9176 -7.15683 4.59426 -108.472 18.428 -8.53646 -1.04503e-005 -9.75897e-007 6.55366e-006 -8.66095 0.0713168 1.08124 1.62392e-005 5.49359e-006 3.02504 -8.02908 -4.95144 -0.697685 174.541 1.16646 3.48955 180 7.01542e-015 178.902 177.994 13.2173 179.776 1.37099e-006 -3.52311e-006 0.247235 -20.2262 70.0866 21.4191 8.13135 25.2331 -3.48532 -174.029 0.16437 -0.736309 4.54188e-006 -4.6773e-006 -1.03157 -0.325248 -12.0489 0.564791 5.55251e-008 -4.95664e-006 -0.138851 18.4787 70.1767 -21.4084 -8.13652 25.2331 3.48719 
47.6395 96.2091 13.1325 0.122814 -4.86115 2.37006 0.464017 -0.708882 0.0345766 0.930883 2.58493 0.00386512 0.931786 4.22987 -0.0116831 -6.07352 12.8576 -1.06467 3.48023 -3.86121 -2.21289 57.4938 -9.42741 -5.84641 113.114 20.5945 19.5085 -9.58815e-006 1.05715e-006 -8.56445e-006 5.53709 0.829967 -0.628734 -3.17359e-006 2.75331e-006 -2.99999 8.02948 -4.95142 0.697667 -62.9189 -7.14561 4.58787 -108.47 18.4231 -8.53501 -1.04503e-005 -9.75897e-007 6.55366e-006 -8.66384 0.0713162 1.08034 1.62392e-005 5.49359e-006 3.02504 -8.02908 -4.95144 -0.697685 174.547 1.18265 3.48847 180 7.01542e-015 178.902 177.991 13.2363 179.777 1.37099e-006 -3.52311e-006 0.247861 -20.2395 70.0971 21.431 8.13135 25.2331 -3.48532 -174.024 0.186036 -0.735704 4.54188e-006 -4.6773e-006 -1.03153 -0.320659 -12.0633 0.565758 5.55251e-008 -4.95664e-006 -0.138876 18.4738 70.1772 -21.4081 -8.13652 25.2331 3.48719 
47.6316 96.213 13.1275 0.124372 -4.85334 2.38294 0.464643 -0.709626 0.0343616 0.931934 2.58344 0.00449965 0.932837 4.22838 -0.0110722 -6.09081 12.8486 -1.06271 3.49727 -3.84824 -2.21344 57.4845 -9.42883 -5.84724 113.127 20.6047 19.5016 -9.58815e-006 1.05715e-006 -8.56445e-006 5.53551 0.81371 -0.627079 -3.17359e-006 2.75331e-006 -2.99999 8.02948 -4.95142 0.697667 -62.9202 -7.13422 4.58139 -108.469 18.4181 -8.5336 -1.04503e-005 -9.75897e-007 6.55366e-006 -8.66674 0.0713157 1.07944 1.62392e-005 5.49359e-006 3.02504 -8.02908 -4.95144 -0.697685 174.553 1.19893 3.48742 180 7.01542e-015 178.902 177.987 13.2554 179.778 1.37099e-006 -3.52311e-006 0.248485 -20.2528 70.1076 21.443 8.13135 25.2331 -3.48531 -174.018 0.207828 -0.73507 4.54188e-006 -4.6773e-006 -1.03149 -0.316059 -12.0778 0.566729 5.55251e-008 -4.95664e-006 -0.138907 18.469 70.1778 -21.4078 -8.13652 25.2331 3.48719 
47.6144 96.211 13.1263 0.125925 -4.84551 2.39581 0.465273 -0.710375 0.0341497 0.932991 2.58194 0.0051404 0.933894 4.22689 -0.0104551 -6.10814 12.8396 -1.06074 3.51437 -3.83523 -2.214 57.4752 -9.43026 -5.84809 113.14 20.6149 19.4946 -9.58815e-006 1.05715e-006 -8.56445e-006 5.53389 0.797451 -0.625423 -3.17359e-006 2.75331e-006 -2.99999 8.02948 -4.95142 0.697667 -62.9214 -7.12279 4.57488 -108.467 18.4131 -8.53221 -1.04503e-005 -9.75897e-007 6.55366e-006 -8.66965 0.0713151 1.07854 1.62392e-005 5.49359e-006 3.02504 -8.02908 -4.95144 -0.697685 174.558 1.21523 3.48637 180 7.01542e-015 178.902 177.983 13.2745 179.779 1.37099e-006 -3.52311e-006 0.249108 -20.2661 70.1182 21.455 8.13135 25.2331 -3.48531 -174.013 0.229652 -0.73443 4.54188e-006 -4.6773e-006 -1.03145 -0.311456 -12.0924 0.567701 5.55251e-008 -4.95664e-006 -0.138939 18.4642 70.1785 -21.4076 -8.13652 25.2331 3.48719 
47.5905 96.2134 13.151 0.127478 -4.8377 2.40869 0.465896 -0.711114 0.0339317 0.934037 2.58047 0.00576871 0.93494 4.22541 -0.00985031 -6.12537 12.8307 -1.05878 3.53135 -3.82231 -2.21455 57.4659 -9.43168 -5.84892 113.153 20.6251 19.4876 -9.58815e-006 1.05715e-006 -8.56445e-006 5.53235 0.781198 -0.623771 -3.17359e-006 2.75331e-006 -2.99999 8.02948 -4.95142 0.697667 -62.9227 -7.11145 4.56843 -108.465 18.4081 -8.53079 -1.04503e-005 -9.75897e-007 6.55366e-006 -8.67255 0.0713146 1.07764 1.62392e-005 5.49359e-006 3.02504 -8.02908 -4.95144 -0.697685 174.564 1.23149 3.48532 180 7.01542e-015 178.902 177.979 13.2936 179.779 1.37099e-006 -3.52311e-006 0.249732 -20.2794 70.1287 21.4669 8.13135 25.2331 -3.48531 -174.007 0.251413 -0.733805 4.54188e-006 -4.6773e-006 -1.03141 -0.306858 -12.1069 0.568672 5.55251e-008 -4.95664e-006 -0.138969 18.4593 70.1791 -21.4073 -8.13652 25.2331 3.48719 
